<svg width="39" height="33" viewBox="0 0 39 33" fill="none" xmlns="http://www.w3.org/2000/svg">
<path d="M23.0767 31.5968L38.4791 16.1143L23.0767 0.631737C22.9376 0.449067 22.7609 0.298415 22.5585 0.189984C22.3561 0.0815523 22.1328 0.0178714 21.9036 0.0032517C21.6745 -0.011368 21.4449 0.0234157 21.2304 0.105247C21.0158 0.187078 20.8214 0.314047 20.6602 0.477557C20.499 0.641068 20.3748 0.837303 20.2961 1.05298C20.2173 1.26865 20.1858 1.49873 20.2037 1.72764C20.2216 1.95654 20.2885 2.17893 20.3998 2.37975C20.5111 2.58057 20.6642 2.75513 20.8489 2.89161L32.3726 14.5115L1.71207 14.5115C1.28699 14.5115 0.879333 14.6804 0.578758 14.981C0.278182 15.2815 0.109321 15.6892 0.109321 16.1143C0.109321 16.5394 0.278182 16.947 0.578757 17.2476C0.879333 17.5482 1.28699 17.717 1.71207 17.717L32.3726 17.717L20.8489 29.3369C20.5492 29.6387 20.3817 30.0472 20.3832 30.4725C20.3847 30.8979 20.5551 31.3052 20.8569 31.6048C21.1587 31.9045 21.5672 32.072 21.9925 32.0705C22.4178 32.069 22.8251 31.8986 23.1248 31.5968L23.0767 31.5968Z" fill="#4F4F4F"/>
</svg>
