<svg width="40" height="33" viewBox="0 0 40 33" fill="none" xmlns="http://www.w3.org/2000/svg">
<path d="M23.7069 31.5968L39.1093 16.1143L23.7069 0.631737C23.5678 0.449067 23.3911 0.298415 23.1887 0.189984C22.9863 0.0815523 22.763 0.0178714 22.5338 0.0032517C22.3047 -0.011368 22.0751 0.0234157 21.8606 0.105247C21.646 0.187078 21.4516 0.314047 21.2904 0.477557C21.1292 0.641068 21.005 0.837303 20.9263 1.05298C20.8475 1.26865 20.816 1.49873 20.8339 1.72764C20.8518 1.95654 20.9187 2.17893 21.03 2.37975C21.1413 2.58057 21.2945 2.75513 21.4791 2.89161L33.0028 14.5115L2.34228 14.5115C1.91721 14.5115 1.50955 14.6804 1.20898 14.981C0.908401 15.2815 0.739539 15.6892 0.739539 16.1143C0.739539 16.5394 0.908401 16.947 1.20898 17.2476C1.50955 17.5482 1.91721 17.717 2.34228 17.717L33.0028 17.717L21.4791 29.3369C21.1794 29.6387 21.0119 30.0472 21.0134 30.4725C21.0149 30.8979 21.1853 31.3052 21.4871 31.6048C21.7889 31.9045 22.1974 32.072 22.6227 32.0705C23.048 32.069 23.4553 31.8986 23.755 31.5968L23.7069 31.5968Z" fill="#EB5757"/>
</svg>
