<svg width="39" height="33" viewBox="0 0 39 33" fill="none" xmlns="http://www.w3.org/2000/svg">
<path d="M15.4024 0.47374L1.92161e-07 15.9563L15.4024 31.4388C15.5415 31.6215 15.7182 31.7721 15.9206 31.8806C16.123 31.989 16.3463 32.0527 16.5755 32.0673C16.8046 32.0819 17.0342 32.0471 17.2487 31.9653C17.4633 31.8835 17.6577 31.7565 17.8189 31.593C17.9801 31.4295 18.1043 31.2333 18.183 31.0176C18.2618 30.8019 18.2933 30.5718 18.2754 30.3429C18.2575 30.114 18.1906 29.8916 18.0793 29.6908C17.968 29.49 17.8149 29.3154 17.6302 29.1789L6.10647 17.559L36.767 17.559C37.1921 17.559 37.5998 17.3902 37.9003 17.0896C38.2009 16.789 38.3698 16.3814 38.3698 15.9563C38.3698 15.5312 38.2009 15.1235 37.9003 14.823C37.5998 14.5224 37.1921 14.3535 36.767 14.3535L6.10647 14.3535L17.6302 2.73361C17.9299 2.43181 18.0974 2.02332 18.0959 1.59801C18.0944 1.1727 17.924 0.765402 17.6222 0.465723C17.3204 0.166046 16.9119 -0.00146846 16.4866 3.45289e-05C16.0613 0.00153751 15.654 0.171936 15.3543 0.47374L15.4024 0.47374Z" fill="#4F4F4F"/>
</svg>
