<svg width="39" height="33" viewBox="0 0 39 33" fill="none" xmlns="http://www.w3.org/2000/svg">
<path d="M15.7722 0.47374L0.369782 15.9563L15.7722 31.4388C15.9113 31.6215 16.088 31.7721 16.2904 31.8806C16.4928 31.989 16.7161 32.0527 16.9453 32.0673C17.1744 32.0819 17.404 32.0471 17.6185 31.9653C17.8331 31.8835 18.0275 31.7565 18.1887 31.593C18.3499 31.4295 18.4741 31.2333 18.5528 31.0176C18.6316 30.8019 18.6631 30.5718 18.6452 30.3429C18.6273 30.114 18.5604 29.8916 18.4491 29.6908C18.3378 29.49 18.1846 29.3154 18 29.1789L6.47625 17.559L37.1368 17.559C37.5619 17.559 37.9695 17.3902 38.2701 17.0896C38.5707 16.789 38.7396 16.3814 38.7396 15.9563C38.7396 15.5312 38.5707 15.1235 38.2701 14.823C37.9695 14.5224 37.5619 14.3535 37.1368 14.3535L6.47625 14.3535L18 2.73361C18.2997 2.43181 18.4672 2.02332 18.4657 1.59801C18.4642 1.1727 18.2938 0.765402 17.992 0.465723C17.6902 0.166046 17.2817 -0.00146846 16.8564 3.45289e-05C16.4311 0.00153751 16.0238 0.171936 15.7241 0.47374L15.7722 0.47374Z" fill="#EB5757"/>
</svg>
